<?xml version="1.0" standalone="no"?>
<!DOCTYPE svg PUBLIC "-//W3C//DTD SVG 20010904//EN"
 "http://www.w3.org/TR/2001/REC-SVG-20010904/DTD/svg10.dtd">
<svg version="1.0" xmlns="http://www.w3.org/2000/svg"
 width="401.000000pt" height="105.000000pt" viewBox="0 0 401.000000 105.000000"
 preserveAspectRatio="xMidYMid meet">

<g transform="translate(0.000000,105.000000) scale(0.100000,-0.100000)"
fill="#000000" stroke="none">
<path d="M415 999 c-104 -10 -302 -46 -325 -59 -21 -13 -6 -12 80 4 278 53
584 41 705 -27 82 -46 107 -134 66 -229 -19 -45 -100 -158 -155 -217 -74 -79
-421 -336 -551 -408 -11 -7 -17 -15 -13 -19 4 -3 81 34 171 85 l164 91 236 0
c131 0 237 3 237 8 0 4 -38 54 -84 110 l-85 103 50 62 c62 77 120 191 126 251
8 66 -19 130 -69 166 -102 74 -302 103 -553 79z"/>
<path d="M238 934 c-17 -5 -18 -25 -18 -235 0 -126 4 -229 9 -229 16 0 105 43
180 87 135 79 221 180 221 260 0 89 -52 115 -240 119 -74 2 -143 1 -152 -2z"/>
<path d="M1733 707 c-18 -5 -33 -16 -33 -23 0 -7 -33 -95 -72 -196 -60 -149
-78 -185 -100 -197 -52 -30 -35 -41 62 -41 83 0 90 1 90 20 0 15 -7 20 -25 20
-28 0 -30 11 -14 59 l11 31 79 0 79 0 15 -37 c8 -20 14 -37 13 -38 -38 -21
-57 -38 -53 -45 4 -6 53 -10 111 -10 97 0 104 1 104 20 0 14 -7 20 -24 20 -22
0 -31 18 -108 212 -45 116 -87 212 -93 214 -5 1 -25 -3 -42 -9z m51 -254 c7
-22 5 -23 -48 -23 -38 0 -56 4 -56 12 0 7 12 44 26 82 l27 69 22 -59 c12 -32
25 -69 29 -81z"/>
<path d="M1090 646 c0 -69 7 -86 35 -86 24 0 35 17 35 55 0 19 6 24 38 28 20
2 40 2 45 0 4 -2 7 -80 7 -172 l0 -167 -35 -17 c-61 -29 -42 -37 85 -37 96 0
120 3 120 14 0 15 -21 26 -51 26 -18 0 -19 9 -19 180 l0 181 38 -7 c51 -9 52
-10 52 -50 0 -31 3 -34 29 -34 25 0 29 4 35 38 3 20 6 52 6 70 l0 32 -210 0
-210 0 0 -54z"/>
<path d="M2020 680 c0 -15 7 -20 25 -20 l25 0 0 -177 0 -178 -31 -17 c-17 -10
-27 -22 -24 -28 3 -6 51 -10 111 -10 96 0 104 1 104 19 0 14 -8 21 -27 23 -27
3 -28 6 -31 66 l-3 62 30 0 c27 0 34 -8 76 -85 l47 -85 64 0 c57 0 64 2 64 20
0 13 -7 20 -19 20 -12 0 -33 25 -63 73 l-45 73 41 35 c39 34 41 39 41 92 0
105 -58 136 -252 137 -126 0 -133 -1 -133 -20z m266 -51 c12 -13 19 -35 19
-61 0 -54 -40 -90 -94 -86 l-36 3 -3 77 c-3 73 -2 77 20 81 52 10 76 6 94 -14z"/>
<path d="M2487 693 c-14 -14 -6 -31 18 -37 l25 -6 0 -175 0 -175 -25 -12 c-14
-6 -25 -17 -25 -25 0 -17 219 -19 284 -2 209 52 205 369 -5 429 -38 11 -262
14 -272 3z m273 -75 c33 -35 50 -85 50 -145 0 -106 -49 -166 -129 -161 l-46 3
-3 150 c-1 82 0 155 2 162 4 8 24 13 55 13 39 0 55 -5 71 -22z"/>
<path d="M2962 678 c2 -15 11 -24 26 -26 22 -3 22 -5 22 -176 l0 -174 -30 -12
c-55 -23 -29 -35 83 -38 102 -3 107 -2 107 18 0 16 -7 20 -30 20 l-30 0 0 175
0 175 25 12 c14 6 25 19 25 30 0 16 -10 18 -101 18 -98 0 -100 0 -97 -22z"/>
<path d="M3212 673 c2 -10 12 -19 23 -21 11 -2 24 -7 28 -11 4 -5 5 -83 1
-174 l-7 -166 -29 -12 c-51 -21 -26 -34 71 -37 84 -2 92 -1 89 15 -2 9 -14 20
-28 23 l-25 6 0 132 c0 73 1 132 1 132 1 0 25 -66 54 -147 29 -82 56 -152 60
-156 4 -5 23 -5 43 -2 l36 7 57 154 c31 85 58 153 59 152 1 -2 0 -63 -3 -136
-5 -129 -6 -134 -28 -144 -13 -6 -24 -17 -24 -25 0 -11 22 -13 108 -11 87 2
107 6 107 18 0 9 -12 17 -30 20 l-30 5 -3 171 -2 171 25 11 c14 6 25 18 25 27
0 12 -15 15 -79 15 l-79 0 -58 -160 c-33 -88 -61 -160 -64 -160 -3 0 -30 71
-61 158 l-56 157 -92 3 c-84 3 -92 1 -89 -15z"/>
</g>
</svg>
